<svg width="83" height="14" viewBox="0 0 83 14" fill="none" xmlns="http://www.w3.org/2000/svg">
<path d="M8.04395 11.2949V13H0.168945V0.317383H2.1377V11.2949H8.04395ZM17.7822 11.2949V13H9.73145V0.317383H17.7822V2.01367H11.7002V5.72266H17.457V7.35742H11.7002V11.2949H17.7822ZM21.7197 13H19.8037V0.317383H21.5879L28.1621 9.66895H28.2324V0.317383H30.1484V13H28.373L21.7988 3.65723H21.7197V13ZM31.9326 9.4668H33.875C34.0156 10.7236 35.2373 11.5498 36.9072 11.5498C38.5068 11.5498 39.6582 10.7236 39.6582 9.58984C39.6582 8.60547 38.9639 8.0166 37.3203 7.6123L35.6768 7.2168C33.3477 6.6543 32.2666 5.56445 32.2666 3.79785C32.2666 1.60938 34.1738 0.106445 36.8809 0.106445C39.5615 0.106445 41.3984 1.60938 41.46 3.79785H39.5439C39.4297 2.53223 38.3838 1.76758 36.8545 1.76758C35.3252 1.76758 34.2793 2.54102 34.2793 3.66602C34.2793 4.5625 34.9473 5.08984 36.582 5.49414L37.9795 5.83691C40.5811 6.45215 41.6621 7.49805 41.6621 9.35254C41.6621 11.7256 39.7725 13.2109 36.7666 13.2109C33.9541 13.2109 32.0557 11.7607 31.9326 9.4668ZM48.9131 0.106445C52.5605 0.106445 54.8545 2.62891 54.8545 6.66309C54.8545 10.6973 52.5605 13.2109 48.9131 13.2109C45.2568 13.2109 42.9717 10.6973 42.9717 6.66309C42.9717 2.62891 45.2568 0.106445 48.9131 0.106445ZM48.9131 1.83789C46.5049 1.83789 44.9844 3.70117 44.9844 6.66309C44.9844 9.61621 46.5049 11.4795 48.9131 11.4795C51.3213 11.4795 52.833 9.61621 52.833 6.66309C52.833 3.70117 51.3213 1.83789 48.9131 1.83789ZM58.7041 1.96973V6.53125H61.4639C62.9844 6.53125 63.8545 5.69629 63.8545 4.24609C63.8545 2.83105 62.9316 1.96973 61.4111 1.96973H58.7041ZM58.7041 8.12207V13H56.7354V0.317383H61.6484C64.2588 0.317383 65.8848 1.8291 65.8848 4.19336C65.8848 5.90723 64.9707 7.2959 63.4238 7.81445L66.2627 13H63.9951L61.4111 8.12207H58.7041ZM69.7607 13H67.792V0.317383H69.7607V13ZM80.3604 13L79.2002 9.57227H74.3662L73.2061 13H71.1582L75.7373 0.317383H77.8643L82.4434 13H80.3604ZM76.7568 2.42676L74.8672 7.99023H78.6992L76.8096 2.42676H76.7568Z" fill="#1B1B1B"/>
</svg>
